<svg width="287" height="288" viewBox="0 0 287 288" fill="none" xmlns="http://www.w3.org/2000/svg">
<path d="M143.432 262.063C139.259 262.129 135.142 261.095 131.49 259.065L127.907 257.026C100.001 241.17 76.7853 218.161 60.6299 190.347C44.4744 162.533 35.9584 130.912 35.9513 98.7124V97.0333C35.9135 92.7863 36.9991 88.6053 39.0974 84.9177C41.1956 81.2301 44.2311 78.1682 47.8937 76.0447L131.49 28.7905C135.121 26.6853 139.24 25.5769 143.432 25.5769C147.625 25.5769 151.744 26.6853 155.375 28.7905L238.971 76.0447C242.634 78.1682 245.669 81.2301 247.768 84.9177C249.866 88.6053 250.951 92.7863 250.914 97.0333V98.7124C250.883 130.936 242.331 162.573 226.132 190.389C209.933 218.205 186.669 241.201 158.719 257.026L155.136 259.065C151.555 261.055 147.525 262.087 143.432 262.063ZM143.432 49.7791L59.836 97.0333V98.7124C59.8561 126.67 67.2761 154.12 81.3359 178.251C95.3956 202.381 115.59 222.324 139.85 236.037L143.432 238.076L147.015 236.037C171.275 222.324 191.469 202.381 205.529 178.251C219.589 154.12 227.009 126.67 227.029 98.7124V97.0333L143.432 49.7791Z" fill="#391A52"/>
</svg>
