<svg xmlns="http://www.w3.org/2000/svg" width="147" height="268" fill="none" viewBox="0 0 147 268"><mask id="mask0_2_114" width="147" height="268" x="0" y="0" maskUnits="userSpaceOnUse" style="mask-type:alpha"><rect width="146.567" height="267.077" x=".259" fill="#351D4F" rx="24.428"/></mask><g mask="url(#mask0_2_114)"><g opacity=".2"><g clip-path="url(#clip0_2_114)"><path fill="#CFCFCF" d="M-53.5707 30.7708C-54.6456 29.6959 -55.9217 28.8433 -57.3261 28.2615C-58.7305 27.6798 -60.2358 27.3804 -61.756 27.3804C-63.2761 27.3804 -64.7814 27.6798 -66.1858 28.2615C-67.5903 28.8433 -68.8664 29.6959 -69.9413 30.7708C-72.1121 32.9417 -73.3317 35.8861 -73.3317 38.9561C-73.3317 42.0262 -72.1121 44.9706 -69.9413 47.1414L114.516 231.599C115.588 232.679 116.863 233.537 118.268 234.122C119.673 234.708 121.18 235.009 122.702 235.009C124.223 235.009 125.73 234.708 127.135 234.122C128.54 233.537 129.815 232.679 130.887 231.599C131.967 230.527 132.825 229.252 133.41 227.847C133.996 226.442 134.297 224.936 134.297 223.414C134.297 221.892 133.996 220.385 133.41 218.98C132.825 217.575 131.967 216.3 130.887 215.228L-53.5707 30.7708Z"/><path fill="#CFCFCF" d="M33.9223 219.727L30.4637 221.687L27.0052 219.727C3.58572 206.546 -15.9088 187.376 -29.4814 164.18C-43.0541 140.985 -50.217 114.599 -50.2364 87.725V86.111L-48.3918 85.0735L-64.8777 68.4723C-67.4866 70.6167 -69.5927 73.3079 -71.0469 76.3559C-72.5012 79.4038 -73.2681 82.734 -73.2936 86.111V87.725C-73.2637 118.7 -65.0079 149.111 -49.3705 175.848C-33.733 202.586 -11.275 224.691 15.7071 239.902L19.1657 241.862C22.6709 243.886 26.6469 244.951 30.6943 244.951C34.7417 244.951 38.7178 243.886 42.2229 241.862L45.6815 239.902C58.248 232.643 69.8653 223.853 80.2673 213.733L63.8967 197.362C54.914 206.081 44.8386 213.599 33.9223 219.727Z"/><path fill="#CFCFCF" d="M122.689 65.9329L41.9891 20.5102C38.484 18.4865 34.5079 17.4211 30.4605 17.4211C26.4131 17.4211 22.4371 18.4865 18.9319 20.5102L-23.4933 44.605L-6.66154 62.0132L30.4605 40.6853L111.161 86.1079V87.7219C111.175 113.173 104.708 138.208 92.3691 160.467L109.316 177.299C125.595 150.254 134.203 119.288 134.218 87.7219V86.1079C134.254 82.0255 133.206 78.0066 131.181 74.4619C129.155 70.9173 126.225 67.974 122.689 65.9329Z"/></g></g></g><defs><clipPath id="clip0_2_114"><rect width="276.686" height="276.686" fill="#fff" transform="translate(-107.876 -7.16638)"/></clipPath></defs></svg>