<svg width="45" height="45" viewBox="0 0 45 45" fill="none" xmlns="http://www.w3.org/2000/svg">
<path d="M18.0412 38.7093L18.0475 38.7034L18.0536 38.6973L30.2751 26.4757C30.2757 26.4751 30.2763 26.4745 30.2769 26.474C31.35 25.4205 31.925 23.9974 31.925 22.5C31.925 20.9975 31.3278 19.5769 30.2786 18.5277L18.0536 6.30267C17.3145 5.56366 16.098 5.56366 15.3589 6.30267C14.6199 7.04168 14.6199 8.25827 15.3589 8.99728L27.5839 21.2223C28.2887 21.927 28.2887 23.0729 27.5839 23.7777L15.3589 36.0027C14.6199 36.7417 14.6199 37.9583 15.3589 38.6973C15.7389 39.0772 16.2245 39.2562 16.7062 39.2562C17.2027 39.2562 17.6777 39.0485 18.0412 38.7093Z" fill="#842EB3" stroke="#842EB3"/>
</svg>
